<?xml version="1.0" encoding="UTF-8" standalone="no"?>
<!-- Created with Inkscape (http://www.inkscape.org/) -->

<svg
   width="135.46667mm"
   height="135.46667mm"
   viewBox="0 0 135.46668 135.46668"
   version="1.1"
   id="svg1"
   sodipodi:docname="icon 2 project.svg"
   inkscape:version="1.3.1 (91b66b0783, 2023-11-16)"
   inkscape:export-filename="icon 2 but bigger\icon 2.svg"
   inkscape:export-xdpi="96"
   inkscape:export-ydpi="96"
   xmlns:inkscape="http://www.inkscape.org/namespaces/inkscape"
   xmlns:sodipodi="http://sodipodi.sourceforge.net/DTD/sodipodi-0.dtd"
   xmlns:xlink="http://www.w3.org/1999/xlink"
   xmlns="http://www.w3.org/2000/svg"
   xmlns:svg="http://www.w3.org/2000/svg">
  <sodipodi:namedview
     id="namedview1"
     pagecolor="#505050"
     bordercolor="#eeeeee"
     borderopacity="1"
     inkscape:showpageshadow="0"
     inkscape:pageopacity="0"
     inkscape:pagecheckerboard="0"
     inkscape:deskcolor="#505050"
     inkscape:document-units="mm"
     inkscape:zoom="0.942656"
     inkscape:cx="245.58269"
     inkscape:cy="247.70436"
     inkscape:window-width="1360"
     inkscape:window-height="697"
     inkscape:window-x="-8"
     inkscape:window-y="-8"
     inkscape:window-maximized="1"
     inkscape:current-layer="g3" />
  <defs
     id="defs1">
    <inkscape:path-effect
       effect="fillet_chamfer"
       id="path-effect5"
       is_visible="true"
       lpeversion="1"
       nodesatellites_param="F,0,0,1,0,0,0,1 @ F,0,0,1,0,0,0,1 @ F,0,0,1,0,0,0,1 @ F,0,0,1,0,0,0,1 @ F,0,0,1,0,0,0,1 @ F,0,0,1,0,0,0,1 @ F,0,0,1,0,0,0,1 @ F,0,0,1,0,0,0,1 @ F,0,0,1,0,0,0,1 @ F,0,0,1,0,0,0,1 @ F,0,0,1,0,0,0,1 @ F,0,0,1,0,0,0,1 @ F,0,0,1,0,0,0,1 @ F,0,0,1,0,0,0,1 @ F,0,0,1,0,0,0,1 @ F,0,0,1,0,0,0,1 @ F,0,0,1,0,0,0,1 @ F,0,0,1,0,0,0,1 | F,0,0,1,0,0,0,1 @ F,0,0,1,0,0,0,1 @ F,0,0,1,0,0,0,1 @ F,0,0,1,0,0,0,1 @ F,0,0,1,0,0,0,1 @ F,0,0,1,0,0,0,1 @ F,0,0,1,0,0,0,1 @ F,0,0,1,0,0,0,1 @ F,0,0,1,0,0,0,1 @ F,0,0,1,0,0,0,1 @ F,0,0,1,0,0,0,1 @ F,0,0,1,0,0,0,1 @ F,0,0,1,0,0,0,1 @ F,0,0,1,0,0,0,1 @ F,0,0,1,0,0,0,1 @ F,0,0,1,0,0,0,1 @ F,0,0,1,0,0,0,1 @ F,0,0,1,0,0,0,1"
       radius="0"
       unit="px"
       method="auto"
       mode="F"
       chamfer_steps="1"
       flexible="false"
       use_knot_distance="true"
       apply_no_radius="true"
       apply_with_radius="true"
       only_selected="false"
       hide_knots="false" />
    <inkscape:path-effect
       effect="fillet_chamfer"
       id="path-effect24"
       is_visible="true"
       lpeversion="1"
       nodesatellites_param="F,0,0,1,0,0,0,1 @ F,0,0,1,0,0,0,1 @ F,0,0,1,0,0,0,1 @ F,0,0,1,0,0,0,1 @ F,0,0,1,0,0,0,1 @ F,0,0,1,0,0,0,1 @ F,0,0,1,0,0,0,1 @ F,0,0,1,0,0,0,1 @ F,0,0,1,0,0,0,1 @ F,0,0,1,0,0,0,1 @ F,0,0,1,0,0,0,1 @ F,0,0,1,0,0,0,1 @ F,0,0,1,0,0,0,1 @ F,0,0,1,0,0,0,1 @ F,0,0,1,0,0,0,1 @ F,0,0,1,0,0,0,1 @ F,0,0,1,0,0,0,1 @ F,0,0,1,0,0,0,1 | F,0,0,1,0,0,0,1 @ F,0,0,1,0,0,0,1 @ F,0,0,1,0,0,0,1 @ F,0,0,1,0,0,0,1 @ F,0,0,1,0,0,0,1 @ F,0,0,1,0,0,0,1 @ F,0,0,1,0,0,0,1 @ F,0,0,1,0,0,0,1 @ F,0,0,1,0,0,0,1 @ F,0,0,1,0,0,0,1 @ F,0,0,1,0,0,0,1 @ F,0,0,1,0,0,0,1 @ F,0,0,1,0,0,0,1 @ F,0,0,1,0,0,0,1 @ F,0,0,1,0,0,0,1 @ F,0,0,1,0,0,0,1 @ F,0,0,1,0,0,0,1 @ F,0,0,1,0,0,0,1"
       radius="0"
       unit="px"
       method="auto"
       mode="F"
       chamfer_steps="1"
       flexible="false"
       use_knot_distance="true"
       apply_no_radius="true"
       apply_with_radius="true"
       only_selected="false"
       hide_knots="false" />
    <linearGradient
       id="linearGradient53"
       inkscape:collect="always">
      <stop
         style="stop-color:#0013b2;stop-opacity:1;"
         offset="0"
         id="stop53" />
      <stop
         style="stop-color:#6699ff;stop-opacity:1;"
         offset="0.11203523"
         id="stop63" />
      <stop
         style="stop-color:#77fffc;stop-opacity:1;"
         offset="0.5"
         id="stop55" />
      <stop
         style="stop-color:#6d9dff;stop-opacity:1;"
         offset="0.83023477"
         id="stop62" />
      <stop
         style="stop-color:#0013b2;stop-opacity:1;"
         offset="1"
         id="stop54" />
    </linearGradient>
    <linearGradient
       inkscape:collect="always"
       xlink:href="#linearGradient53"
       id="linearGradient54"
       x1="45.201397"
       y1="150.14796"
       x2="106.68819"
       y2="242.43182"
       gradientUnits="userSpaceOnUse"
       spreadMethod="pad"
       gradientTransform="rotate(180,76.843836,195.96142)" />
  </defs>
  <g
     inkscape:label="Layer 1"
     inkscape:groupmode="layer"
     id="layer1"
     transform="translate(-37.26667,-80.766671)">
    <g
       id="g43"
       transform="matrix(-1.2712684,0.73396715,0.73396715,1.2712684,57.318361,-156.53823)"
       style="display:none;fill:#6699ff"
       inkscape:label="early solid">
      <rect
         style="display:inline;fill:#ffffff;fill-opacity:1;fill-rule:evenodd;stroke-width:0;stroke-dasharray:none"
         id="rect37"
         width="135.46666"
         height="135.46666"
         x="37.26667"
         y="80.76667"
         sodipodi:type="rect"
         inkscape:label="sqaure white"
         transform="matrix(-0.58996197,0.3406147,0.3406147,0.58996197,87.134875,72.828125)" />
      <path
         id="path38"
         style="display:inline;fill:#6699ff;fill-rule:evenodd;stroke-width:0.264583"
         d="m 43.93814,168.38171 24.27862,42.0518 15.769651,-9.10461 -2.124415,-3.67959 -11.827351,6.82852 -20.029785,-34.6926 7.88505,-4.55244 10.01489,17.3463 3.942301,-2.27609 -12.13931,-21.0259 z"
         sodipodi:nodetypes="ccccccccccc"
         inkscape:label="path38"
         transform="rotate(180,76.843836,195.96142)" />
      <path
         id="path43"
         style="display:inline;fill:#6699ff;fill-rule:evenodd;stroke-width:0.264583"
         d="m 43.93814,168.38171 24.27862,42.0518 15.769651,-9.10461 -2.124415,-3.67959 -11.827351,6.82852 -20.029785,-34.6926 7.88505,-4.55244 10.01489,17.3463 3.942301,-2.27609 -12.13931,-21.0259 z"
         sodipodi:nodetypes="ccccccccccc"
         inkscape:label="path38" />
    </g>
    <g
       id="g45"
       transform="matrix(-1.4679343,0,0,1.4679343,216.26017,-138.67631)"
       style="display:none;fill:#6699ff"
       inkscape:label="early gradient">
      <path
         id="path44"
         style="display:inline;fill:url(#linearGradient54);fill-rule:evenodd;stroke-width:0.264583"
         inkscape:label="path38"
         d="m 59.70795,159.27722 12.139224,21.02564 -3.94244,2.27626 -10.014693,-17.34618 -7.885229,4.55217 20.029734,34.6927 11.827321,-6.82842 2.124532,3.67947 -15.769762,9.10468 -24.278445,-42.05199 z m 25.76298,22.212 24.27845,42.05199 -15.76941,9.10469 -12.139225,-21.026 3.942089,-2.27626 10.015045,17.34653 7.884881,-4.55252 -20.029738,-34.6927 -11.827322,6.82842 -2.124532,-3.67947 z" />
      <rect
         style="fill:#ffffff;fill-opacity:1;fill-rule:evenodd;stroke-width:0;stroke-dasharray:none"
         id="rect37-6"
         width="135.46666"
         height="135.46666"
         x="66.939583"
         y="77.258331"
         sodipodi:type="rect"
         inkscape:label="sqaure white"
         transform="matrix(-0.68122941,0,0,0.68122941,147.32279,94.470379)" />
    </g>
    <g
       id="g3"
       transform="matrix(-1.2712684,0.73396715,0.73396715,1.2712684,57.318361,-156.53823)"
       style="display:none;fill:#6699ff"
       inkscape:label="export slightly beveled"
       inkscape:export-filename="g3.jpg"
       inkscape:export-xdpi="96"
       inkscape:export-ydpi="96">
      <rect
         style="display:inline;fill:#ffffff;fill-opacity:1;fill-rule:evenodd;stroke-width:0;stroke-dasharray:none"
         id="path1"
         width="135.46666"
         height="135.46666"
         x="37.26667"
         y="80.76667"
         sodipodi:type="rect"
         inkscape:label="sqaure white"
         transform="matrix(-0.58996197,0.3406147,0.3406147,0.58996197,87.134875,72.828125)" />
      <path
         id="path2"
         style="display:inline;fill:#0084ff;fill-opacity:1;fill-rule:evenodd;stroke:#0084ff;stroke-width:1.70307;stroke-dasharray:none;stroke-opacity:1"
         inkscape:label="path38"
         d="m 55.821154,162.52951 c 3.377782,-0.2532 6.602048,1.45081 8.295706,4.38425 l 6.493286,11.24646 c 0.723256,1.03394 0.471393,2.45844 -0.562552,3.18169 -1.183351,0.68336 -2.696619,0.27797 -3.379889,-0.90543 l -6.430976,-11.13874 c -1.189495,-2.21642 -3.950519,-3.04892 -6.16695,-1.85945 -2.244975,1.29625 -3.014111,4.16695 -1.717931,6.41197 l 15.335703,26.56245 c 1.29614,2.24531 4.167133,3.01464 6.412318,1.71828 l 5.619536,-3.24471 c 0.919532,-0.75386 2.276082,-0.61957 3.029965,0.29994 0.683299,1.18344 0.277746,2.69674 -0.905786,3.37989 l -5.990228,3.45839 c -4.217537,2.43504 -9.610512,0.99006 -12.045583,-3.22746 l -15.460675,-26.7786 c -2.434977,-4.21763 -0.989834,-9.61063 3.227809,-12.04558 l 0.496369,-0.28691 c 1.147232,-0.66224 2.428924,-1.05751 3.749878,-1.15644 z m 25.545423,21.83498 c 3.377657,-0.25306 6.60175,1.45093 8.295354,4.38424 l 15.460679,26.7786 c 2.43504,4.21754 0.99006,9.61052 -3.22746,12.04559 l -0.49637,0.28655 c -4.217535,2.43504 -9.61051,0.99006 -12.045584,-3.22745 L 82.859909,213.3852 c -0.723256,-1.03394 -0.471393,-2.45844 0.562552,-3.18169 1.183364,-0.68306 2.696397,-0.27754 3.379537,0.90578 l 6.430976,11.13839 c 1.189371,2.21655 3.950427,3.04921 6.16695,1.8598 2.245306,-1.29614 3.014636,-4.16713 1.718286,-6.41231 L 85.782152,191.13271 c -1.29625,-2.24497 -4.166951,-3.01411 -6.411966,-1.71793 l -5.619535,3.24436 c -0.919532,0.75386 -2.276083,0.61958 -3.029966,-0.29994 -0.683113,-1.18327 -0.277754,-2.69627 0.905434,-3.37953 l 5.990228,-3.45875 c 1.147338,-0.66229 2.429156,-1.05755 3.75023,-1.15643 z"
         transform="rotate(-30,76.940316,196.12853)"
         inkscape:path-effect="#path-effect24"
         inkscape:original-d="m 55.821154,162.52951 a 8.8179885,8.8179885 0 0 1 8.295706,4.38425 l 6.493286,11.24646 a 2.2846882,2.2846882 0 0 1 -0.562552,3.18169 2.4741209,2.4741209 0 0 1 -3.379889,-0.90543 l -6.430976,-11.13874 a 4.5546332,4.5546332 0 0 0 -6.16695,-1.85945 4.6939336,4.6939336 0 0 0 -1.717931,6.41197 l 15.335703,26.56245 a 4.6939336,4.6939336 0 0 0 6.412318,1.71828 l 5.619536,-3.24471 a 2.1530058,2.1530058 0 0 1 3.029965,0.29994 2.4741201,2.4741201 0 0 1 -0.905786,3.37989 l -5.990228,3.45839 a 8.8179885,8.8179885 0 0 1 -12.045583,-3.22746 l -15.460675,-26.7786 a 8.8179859,8.8179859 0 0 1 3.227809,-12.04558 l 0.496369,-0.28691 a 8.8179885,8.8179885 0 0 1 3.749878,-1.15644 z m 25.545423,21.83498 a 8.8179885,8.8179885 0 0 1 8.295354,4.38424 l 15.460679,26.7786 a 8.8179859,8.8179859 0 0 1 -3.22746,12.04559 l -0.49637,0.28655 A 8.8179885,8.8179885 0 0 1 89.353196,224.63202 L 82.859909,213.3852 a 2.2846882,2.2846882 0 0 1 0.562552,-3.18169 2.4741209,2.4741209 0 0 1 3.379537,0.90578 l 6.430976,11.13839 a 4.5546332,4.5546332 0 0 0 6.16695,1.8598 4.6939336,4.6939336 0 0 0 1.718286,-6.41231 L 85.782152,191.13271 a 4.6939336,4.6939336 0 0 0 -6.411966,-1.71793 l -5.619535,3.24436 a 2.1530058,2.1530058 0 0 1 -3.029966,-0.29994 2.4741201,2.4741201 0 0 1 0.905434,-3.37953 l 5.990228,-3.45875 a 8.8179885,8.8179885 0 0 1 3.75023,-1.15643 z" />
    </g>
    <g
       id="g4"
       transform="matrix(-1.2712684,0.73396715,0.73396715,1.2712684,57.318361,-156.53823)"
       style="display:inline;fill:#6699ff"
       inkscape:label="export slightly beveled bigger icon"
       inkscape:export-filename="g3.jpg"
       inkscape:export-xdpi="96"
       inkscape:export-ydpi="96">
      <rect
         style="display:inline;fill:#ffffff;fill-opacity:1;fill-rule:evenodd;stroke-width:0;stroke-dasharray:none"
         id="rect1"
         width="135.46666"
         height="135.46666"
         x="37.26667"
         y="80.76667"
         sodipodi:type="rect"
         inkscape:label="sqaure white"
         transform="matrix(-0.58996197,0.3406147,0.3406147,0.58996197,87.134875,72.828125)" />
      <path
         id="path3"
         style="display:inline;fill:#0084ff;fill-opacity:1;fill-rule:evenodd;stroke:#0084ff;stroke-width:1.70307;stroke-dasharray:none;stroke-opacity:1"
         inkscape:label="path38"
         d="m 55.821154,162.52951 c 3.377782,-0.2532 6.602048,1.45081 8.295706,4.38425 l 6.493286,11.24646 c 0.723256,1.03394 0.471393,2.45844 -0.562552,3.18169 -1.183351,0.68336 -2.696619,0.27797 -3.379889,-0.90543 l -6.430976,-11.13874 c -1.189495,-2.21642 -3.950519,-3.04892 -6.16695,-1.85945 -2.244975,1.29625 -3.014111,4.16695 -1.717931,6.41197 l 15.335703,26.56245 c 1.29614,2.24531 4.167133,3.01464 6.412318,1.71828 l 5.619536,-3.24471 c 0.919532,-0.75386 2.276082,-0.61957 3.029965,0.29994 0.683299,1.18344 0.277746,2.69674 -0.905786,3.37989 l -5.990228,3.45839 c -4.217537,2.43504 -9.610512,0.99006 -12.045583,-3.22746 l -15.460675,-26.7786 c -2.434977,-4.21763 -0.989834,-9.61063 3.227809,-12.04558 l 0.496369,-0.28691 c 1.147232,-0.66224 2.428924,-1.05751 3.749878,-1.15644 z m 25.545423,21.83498 c 3.377657,-0.25306 6.60175,1.45093 8.295354,4.38424 l 15.460679,26.7786 c 2.43504,4.21754 0.99006,9.61052 -3.22746,12.04559 l -0.49637,0.28655 c -4.217535,2.43504 -9.61051,0.99006 -12.045584,-3.22745 L 82.859909,213.3852 c -0.723256,-1.03394 -0.471393,-2.45844 0.562552,-3.18169 1.183364,-0.68306 2.696397,-0.27754 3.379537,0.90578 l 6.430976,11.13839 c 1.189371,2.21655 3.950427,3.04921 6.16695,1.8598 2.245306,-1.29614 3.014636,-4.16713 1.718286,-6.41231 L 85.782152,191.13271 c -1.29625,-2.24497 -4.166951,-3.01411 -6.411966,-1.71793 l -5.619535,3.24436 c -0.919532,0.75386 -2.276083,0.61958 -3.029966,-0.29994 -0.683113,-1.18327 -0.277754,-2.69627 0.905434,-3.37953 l 5.990228,-3.45875 c 1.147338,-0.66229 2.429156,-1.05755 3.75023,-1.15643 z"
         transform="matrix(1.0507935,-0.6066759,0.6066759,1.0507935,-122.81848,36.759828)"
         inkscape:path-effect="#path-effect5"
         inkscape:original-d="m 55.821154,162.52951 a 8.8179885,8.8179885 0 0 1 8.295706,4.38425 l 6.493286,11.24646 a 2.2846882,2.2846882 0 0 1 -0.562552,3.18169 2.4741209,2.4741209 0 0 1 -3.379889,-0.90543 l -6.430976,-11.13874 a 4.5546332,4.5546332 0 0 0 -6.16695,-1.85945 4.6939336,4.6939336 0 0 0 -1.717931,6.41197 l 15.335703,26.56245 a 4.6939336,4.6939336 0 0 0 6.412318,1.71828 l 5.619536,-3.24471 a 2.1530058,2.1530058 0 0 1 3.029965,0.29994 2.4741201,2.4741201 0 0 1 -0.905786,3.37989 l -5.990228,3.45839 a 8.8179885,8.8179885 0 0 1 -12.045583,-3.22746 l -15.460675,-26.7786 a 8.8179859,8.8179859 0 0 1 3.227809,-12.04558 l 0.496369,-0.28691 a 8.8179885,8.8179885 0 0 1 3.749878,-1.15644 z m 25.545423,21.83498 a 8.8179885,8.8179885 0 0 1 8.295354,4.38424 l 15.460679,26.7786 a 8.8179859,8.8179859 0 0 1 -3.22746,12.04559 l -0.49637,0.28655 A 8.8179885,8.8179885 0 0 1 89.353196,224.63202 L 82.859909,213.3852 a 2.2846882,2.2846882 0 0 1 0.562552,-3.18169 2.4741209,2.4741209 0 0 1 3.379537,0.90578 l 6.430976,11.13839 a 4.5546332,4.5546332 0 0 0 6.16695,1.8598 4.6939336,4.6939336 0 0 0 1.718286,-6.41231 L 85.782152,191.13271 a 4.6939336,4.6939336 0 0 0 -6.411966,-1.71793 l -5.619535,3.24436 a 2.1530058,2.1530058 0 0 1 -3.029966,-0.29994 2.4741201,2.4741201 0 0 1 0.905434,-3.37953 l 5.990228,-3.45875 a 8.8179885,8.8179885 0 0 1 3.75023,-1.15643 z" />
    </g>
  </g>
</svg>
